<mxfile host="app.diagrams.net" modified="2024-07-20T16:07:55.192Z" agent="Mozilla/5.0 (Windows NT 10.0; Win64; x64) AppleWebKit/537.36 (KHTML, like Gecko) Chrome/126.0.0.0 Safari/537.36" version="24.7.1" etag="SHPB7qXXczOsbBD_gFce" type="github">
  <diagram name="Halaman-1" id="WUylV0KFoIszOjoLwVtp">
    <mxGraphModel>
      <root>
        <mxCell id="0" />
        <mxCell id="1" parent="0" />
      </root>
    </mxGraphModel>
  </diagram>
</mxfile>
